<mxfile host="app.diagrams.net" modified="2023-03-25T23:18:52.568Z" agent="Mozilla/5.0 (Windows NT 10.0; Win64; x64) AppleWebKit/537.36 (KHTML, like Gecko) Chrome/111.0.0.0 Safari/537.36" version="21.1.0" etag="OTfdw26KplRj4c0CkSwl" type="github">
  <diagram name="PÃ¡gina-1" id="emDb1RVsAPOCOiv4iz_6">
    <mxGraphModel>
      <root>
        <mxCell id="0" />
        <mxCell id="1" parent="0" />
      </root>
    </mxGraphModel>
  </diagram>
</mxfile>
